<svg width="228" height="48" viewBox="0 0 228 48" fill="none" xmlns="http://www.w3.org/2000/svg">
<g id="stc_logo 1" clip-path="url(#clip0_2315_20209)">
<path id="Vector" d="M63.9522 19.3894C63.8689 19.556 63.744 19.681 63.619 19.8059C63.4941 19.8892 63.3275 19.9309 63.1609 19.9309C62.9526 19.9309 62.786 19.8892 62.6194 19.7643C62.4111 19.6393 62.2029 19.556 61.9529 19.3894C61.6614 19.2645 61.4115 19.1395 61.1199 19.0145C60.7867 18.8896 60.4118 18.8479 60.0369 18.8479C59.4538 18.8063 58.9123 18.9729 58.4542 19.3061C58.1209 19.5977 57.9127 20.0558 57.9543 20.514C57.9543 20.8056 58.0376 21.0971 58.2875 21.3471C58.5375 21.597 58.7874 21.7636 59.1206 21.8885C59.4955 22.0552 59.8703 22.2218 60.2869 22.3051C60.7034 22.43 61.1615 22.5966 61.6197 22.7216C62.0779 22.8882 62.5361 23.0548 62.9526 23.3047C63.3691 23.513 63.7856 23.8045 64.1189 24.1378C64.4521 24.471 64.7436 24.8875 64.9519 25.3457C65.1602 25.8872 65.2851 26.4703 65.2851 27.0951C65.2851 27.8032 65.1602 28.5112 64.9102 29.2193C64.6603 29.8441 64.2855 30.4272 63.7856 30.9271C63.2442 31.4269 62.6194 31.8434 61.9529 32.0933C61.1615 32.3849 60.3285 32.5099 59.4955 32.5099C58.9956 32.5099 58.4542 32.4682 57.9543 32.3432C57.4545 32.2599 56.913 32.0933 56.4132 31.8851C55.9134 31.7185 55.4552 31.4686 55.0387 31.2186C54.6221 30.9687 54.2473 30.6772 53.9141 30.3439L55.0387 28.5945C55.122 28.4696 55.2469 28.3446 55.3719 28.2613C55.5385 28.178 55.6635 28.1364 55.8717 28.1364C56.1216 28.1364 56.3299 28.2197 56.5382 28.3446C56.7464 28.4696 57.038 28.6362 57.2879 28.8028C57.6211 28.9694 57.9127 29.136 58.2875 29.261C58.7041 29.4276 59.1622 29.4692 59.6204 29.4692C60.2035 29.5109 60.745 29.3443 61.2032 29.0111C61.6197 28.6362 61.828 28.1364 61.7863 27.5949C61.7863 27.2617 61.703 26.9285 61.4531 26.6785C61.2448 26.4286 60.9533 26.2204 60.6201 26.0954C60.2452 25.9288 59.8703 25.8039 59.4538 25.6789C59.0373 25.5539 58.5791 25.429 58.1209 25.304C57.6628 25.1374 57.2046 24.9708 56.7881 24.7625C56.3715 24.5543 55.955 24.2627 55.6218 23.9295C55.2469 23.5546 54.997 23.0965 54.7888 22.6383C54.5805 22.0135 54.4555 21.3887 54.4555 20.7223C54.4555 20.0975 54.5805 19.5144 54.8304 18.9312C55.0803 18.3481 55.4552 17.8066 55.9134 17.3901C56.4132 16.9319 56.9963 16.5571 57.6628 16.3071C58.4125 16.0156 59.2455 15.8906 60.0369 15.8906C60.5368 15.8906 60.9949 15.9323 61.4948 16.0156C61.9529 16.0989 62.4111 16.2238 62.8276 16.3488C63.2442 16.5154 63.619 16.682 64.0356 16.8903C64.4104 17.0985 64.702 17.3485 65.0352 17.5984L63.9522 19.3894Z" fill="black"/>
<path id="Vector_2" d="M74.82 32.3398C74.5701 32.3398 74.3202 32.2981 74.1119 32.2148C73.9037 32.0898 73.7787 31.8816 73.6954 31.6733L73.4455 31.0485C73.1539 31.2985 72.904 31.5067 72.6541 31.6733C72.4042 31.8399 72.1126 32.0065 71.8627 32.1315C71.5712 32.2565 71.2796 32.3398 70.988 32.4231C70.6548 32.5064 70.2799 32.5064 69.9467 32.5064C69.4886 32.5064 68.9887 32.4647 68.5306 32.2981C68.1557 32.1732 67.7808 31.9649 67.4476 31.715C67.156 31.4651 66.9061 31.1318 66.7812 30.757C66.6146 30.3405 66.5312 29.8823 66.5312 29.4241C66.5312 29.0076 66.6562 28.5911 66.8228 28.2162C67.0727 27.758 67.4476 27.3415 67.8641 27.0499C68.4889 26.6334 69.1553 26.3418 69.8634 26.1752C70.9047 25.9253 71.9877 25.8004 73.0706 25.842V25.3422C73.1123 24.8424 72.9873 24.3009 72.6541 23.8844C72.3626 23.5928 71.946 23.4262 71.4879 23.4262C71.1546 23.4262 70.8214 23.4678 70.5299 23.5511C70.2799 23.6344 70.0717 23.7178 69.8634 23.8427C69.6552 23.9677 69.4886 24.051 69.2803 24.1343C69.072 24.2176 68.8221 24.2592 68.6139 24.2592C68.4056 24.2592 68.1973 24.2176 68.0307 24.0926C67.8641 23.9677 67.7392 23.8427 67.6559 23.6761L67.0311 22.6348C67.6975 22.0517 68.4472 21.5935 69.2803 21.3019C70.155 21.0104 71.0297 20.8438 71.946 20.8438C72.5708 20.8438 73.1956 20.9271 73.7787 21.177C74.3202 21.3852 74.7784 21.6768 75.1533 22.0933C75.5281 22.5098 75.8197 22.968 76.0279 23.5095C76.2362 24.0926 76.3195 24.6758 76.3195 25.3005V32.2981H74.82V32.3398ZM70.9464 30.2988C71.3212 30.2988 71.7378 30.2155 72.071 30.0905C72.4459 29.9239 72.7791 29.674 73.0706 29.3408V27.7997C72.5292 27.7997 71.946 27.8413 71.4046 27.9246C71.0297 27.9663 70.6965 28.0912 70.3633 28.2578C70.155 28.3411 69.9467 28.5078 69.8218 28.716C69.7385 28.8826 69.6552 29.0492 69.6552 29.2575C69.6135 29.5491 69.7385 29.8823 69.9884 30.0905C70.2799 30.2571 70.6132 30.3405 70.9464 30.2988Z" fill="black"/>
<path id="Vector_3" d="M84.6485 32.3398H81.6079L77.2344 21.0938H80.0251C80.2333 21.0938 80.4416 21.1354 80.6082 21.2604C80.7748 21.3437 80.8581 21.5103 80.9414 21.6769L82.4825 26.7168C82.6075 27.1333 82.7325 27.5082 82.8158 27.9247C82.8991 28.3412 83.024 28.7161 83.1073 29.091C83.1906 28.7161 83.2739 28.2996 83.3989 27.9247C83.5239 27.5498 83.6488 27.1333 83.7738 26.7168L85.3982 21.6769C85.4399 21.5103 85.5648 21.3437 85.7314 21.2604C85.898 21.1354 86.1063 21.0938 86.3146 21.0938H88.9803L84.6485 32.3398Z" fill="black"/>
<path id="Vector_4" d="M94.946 20.9297C95.6541 20.9297 96.3205 21.0546 96.9869 21.2629C97.5701 21.4712 98.1116 21.8044 98.5697 22.2626C99.0279 22.7207 99.4028 23.2622 99.611 23.887C99.861 24.5951 99.9859 25.3032 99.9859 26.0529C99.9859 26.2612 99.9859 26.4694 99.9443 26.6777C99.9443 26.8026 99.9026 26.9276 99.8193 27.0526C99.7776 27.1359 99.6943 27.2192 99.5694 27.2608C99.4444 27.3025 99.3195 27.3025 99.1945 27.3025H92.6968C92.7384 28.0522 93.03 28.802 93.5715 29.3434C94.0713 29.76 94.6961 30.0099 95.3625 29.9682C95.6957 29.9682 96.0289 29.9266 96.3622 29.8433C96.6121 29.76 96.862 29.635 97.1119 29.51C97.3202 29.3851 97.5284 29.3018 97.7367 29.1768C97.9033 29.0935 98.1116 29.0519 98.3198 29.0519C98.5697 29.0519 98.778 29.1352 98.9446 29.3434L99.9026 30.5513C99.5694 30.9262 99.1945 31.2594 98.778 31.5093C98.4031 31.7593 97.9866 31.9675 97.5284 32.0925C97.1119 32.2174 96.6954 32.3424 96.2789 32.384C95.8623 32.4257 95.4875 32.4674 95.071 32.4674C94.3212 32.4674 93.5715 32.3424 92.8634 32.0925C92.1969 31.8426 91.5722 31.4677 91.0723 30.9679C90.5309 30.4264 90.1143 29.8016 89.8644 29.0935C89.5312 28.2605 89.4062 27.3858 89.4062 26.4694C89.4062 25.7613 89.5312 25.0116 89.7811 24.3452C90.2809 23.0123 91.3223 21.9293 92.6135 21.3879C93.3632 21.0963 94.1546 20.9297 94.946 20.9297ZM95.0293 23.2622C94.4878 23.2206 93.9463 23.4288 93.5298 23.8037C93.1133 24.2619 92.8634 24.8033 92.8217 25.3865H97.0286C97.0286 25.1366 96.987 24.845 96.9453 24.5951C96.862 24.3452 96.7787 24.1369 96.6121 23.9286C96.4455 23.7204 96.2372 23.5538 95.9873 23.4288C95.6541 23.3039 95.3209 23.2622 95.0293 23.2622Z" fill="black"/>
<path id="Vector_5" d="M110.358 32.5111C109.858 32.5111 109.4 32.4278 108.942 32.2612C108.15 31.9696 107.525 31.3448 107.275 30.5534C107.109 30.1369 107.067 29.6787 107.067 29.2205V23.4309H106.109C105.776 23.4309 105.484 23.181 105.484 22.8478V21.4732L107.275 21.14L107.942 18.391C108.025 18.0578 108.317 17.8078 108.692 17.8911H110.441V21.1817H113.19V23.4725H110.441V29.0539C110.441 29.3038 110.483 29.5121 110.649 29.6787C110.774 29.8453 110.982 29.9286 111.191 29.9286C111.316 29.9286 111.399 29.9286 111.482 29.887C111.566 29.8453 111.649 29.8453 111.691 29.8037C111.732 29.762 111.816 29.762 111.857 29.7204C111.899 29.6787 111.982 29.6787 112.065 29.6787C112.149 29.6787 112.232 29.6787 112.315 29.762L112.524 29.9703L113.523 31.5531C113.065 31.8863 112.607 32.1362 112.065 32.3028C111.524 32.4278 110.941 32.5111 110.358 32.5111Z" fill="black"/>
<path id="Vector_6" d="M115.062 32.3433V16.1406H118.436V22.0969C118.853 21.7637 119.269 21.4721 119.769 21.2638C120.311 21.0556 120.894 20.9306 121.477 20.9306C122.018 20.9306 122.602 21.0139 123.101 21.2638C123.56 21.4721 123.976 21.7637 124.309 22.1385C124.643 22.5551 124.892 23.0132 125.059 23.4714C125.226 24.0129 125.309 24.596 125.309 25.1792V32.3017H121.935V25.2208C121.977 24.7626 121.81 24.3045 121.56 23.9296C121.269 23.5964 120.852 23.4298 120.436 23.4714C120.061 23.4714 119.728 23.5547 119.394 23.7213C119.061 23.8879 118.728 24.0962 118.478 24.3461V32.3433H115.062Z" fill="black"/>
<path id="Vector_7" d="M132.514 20.9297C133.222 20.9297 133.888 21.0546 134.555 21.2629C135.138 21.4712 135.679 21.8044 136.137 22.2626C136.596 22.7207 136.97 23.2622 137.179 23.887C137.429 24.5951 137.554 25.3032 137.554 26.0529C137.554 26.2612 137.554 26.4694 137.512 26.6777C137.512 26.8026 137.47 26.9276 137.387 27.0526C137.345 27.1359 137.262 27.2192 137.137 27.2608C137.012 27.3025 136.887 27.3025 136.762 27.3025H130.306C130.348 28.0522 130.639 28.802 131.181 29.3434C131.681 29.76 132.305 30.0099 132.972 29.9682C133.305 29.9682 133.638 29.9266 133.972 29.8433C134.221 29.76 134.471 29.635 134.721 29.51C134.93 29.3851 135.138 29.3018 135.346 29.1768C135.513 29.0935 135.721 29.0519 135.929 29.0519C136.179 29.0519 136.387 29.1352 136.554 29.3434L137.512 30.5513C137.179 30.9262 136.804 31.2594 136.387 31.5093C136.013 31.7593 135.596 31.9675 135.138 32.0925C134.721 32.2174 134.305 32.3424 133.888 32.384C133.472 32.4257 133.097 32.4674 132.68 32.4674C131.931 32.4674 131.181 32.3424 130.473 32.0925C129.806 31.8426 129.182 31.4677 128.682 30.9679C128.14 30.4264 127.724 29.8016 127.474 29.0935C127.141 28.2605 127.016 27.3858 127.016 26.4694C127.016 25.7613 127.141 25.0116 127.39 24.3452C127.89 23.0123 128.932 21.9293 130.223 21.3879C130.931 21.0963 131.722 20.9297 132.514 20.9297ZM132.597 23.2622C132.056 23.2206 131.514 23.4288 131.098 23.8037C130.681 24.2619 130.431 24.8033 130.389 25.3865H134.596C134.596 25.1366 134.555 24.845 134.513 24.5951C134.43 24.3452 134.346 24.1369 134.18 23.9286C134.013 23.7204 133.805 23.5538 133.555 23.4288C133.222 23.3039 132.93 23.2622 132.597 23.2622Z" fill="black"/>
<path id="Vector_8" d="M155.084 28.1416C155.168 28.1416 155.251 28.1416 155.334 28.1832C155.418 28.2249 155.501 28.2666 155.584 28.3499L157.084 29.9326C156.459 30.7657 155.584 31.4321 154.626 31.8486C153.502 32.3068 152.335 32.5151 151.127 32.5151C150.003 32.5151 148.878 32.3068 147.795 31.8903C146.837 31.4738 146.004 30.8906 145.296 30.1409C144.588 29.3912 144.088 28.4748 143.713 27.5168C143.338 26.4339 143.172 25.3509 143.172 24.2263C143.172 23.1017 143.38 21.9354 143.797 20.8941C144.213 19.8945 144.796 19.0198 145.546 18.27C146.296 17.5203 147.212 16.9372 148.212 16.5623C149.295 16.1458 150.461 15.9375 151.669 15.9375C152.252 15.9375 152.835 15.9792 153.377 16.1041C153.876 16.1874 154.418 16.354 154.876 16.5623C155.334 16.7289 155.751 16.9788 156.167 17.2287C156.542 17.4786 156.917 17.7702 157.209 18.1034L155.917 19.8112C155.834 19.9361 155.751 20.0194 155.626 20.1027C155.501 20.186 155.334 20.2277 155.168 20.2277C155.043 20.2277 154.918 20.186 154.793 20.1444C154.668 20.0611 154.543 20.0194 154.418 19.9361C154.293 19.8528 154.126 19.7695 153.96 19.6445C153.793 19.5196 153.585 19.4363 153.377 19.353C153.127 19.2697 152.877 19.1864 152.627 19.1447C152.294 19.0614 151.96 19.0614 151.586 19.0614C150.961 19.0614 150.294 19.1864 149.711 19.4363C149.17 19.6862 148.67 20.0194 148.253 20.4776C147.837 20.9358 147.504 21.5189 147.295 22.102C147.046 22.8101 146.962 23.5182 146.962 24.2679C146.962 25.0177 147.046 25.7674 147.295 26.4755C147.504 27.0586 147.795 27.6418 148.212 28.0999C148.587 28.5165 149.045 28.8913 149.586 29.0996C150.128 29.3495 150.669 29.4328 151.252 29.4328C151.586 29.4328 151.877 29.4328 152.169 29.3912C152.419 29.3495 152.71 29.3079 152.96 29.2246C153.21 29.1412 153.418 29.0163 153.668 28.8913C153.918 28.7664 154.126 28.5998 154.335 28.3915C154.418 28.3082 154.501 28.2666 154.626 28.2249C154.834 28.1832 154.959 28.1416 155.084 28.1416Z" fill="black"/>
<path id="Vector_9" d="M158.797 32.3433V16.1406H162.171V22.0969C162.587 21.7637 163.004 21.4721 163.504 21.2638C164.045 21.0556 164.628 20.9306 165.211 20.9306C165.753 20.9306 166.336 21.0139 166.836 21.2638C167.294 21.4721 167.71 21.7637 168.044 22.1385C168.377 22.5551 168.627 23.0132 168.793 23.4714C168.96 24.0129 169.043 24.596 169.043 25.1792V32.3017H165.669V25.2208C165.711 24.7626 165.545 24.3045 165.295 23.9296C165.003 23.5964 164.587 23.4298 164.17 23.4714C163.795 23.4714 163.462 23.5547 163.129 23.7213C162.795 23.8879 162.462 24.0962 162.212 24.3461V32.3433H158.797Z" fill="black"/>
<path id="Vector_10" d="M175.415 18.0514C175.415 18.3013 175.374 18.5512 175.249 18.8011C175.124 19.0511 174.999 19.2593 174.79 19.4259C174.582 19.5925 174.374 19.7591 174.124 19.8424C173.874 19.9674 173.583 20.0091 173.333 20.0091C173.083 20.0091 172.791 19.9674 172.583 19.8424C172.333 19.7591 172.125 19.5925 171.958 19.4259C171.792 19.2593 171.625 19.0511 171.542 18.8011C171.417 18.5512 171.375 18.3013 171.375 18.0514C171.375 17.8015 171.417 17.5099 171.542 17.3017C171.625 17.0518 171.792 16.8435 171.958 16.6769C172.125 16.5103 172.375 16.3437 172.583 16.2604C172.833 16.1771 173.083 16.0938 173.333 16.0938C173.624 16.0938 173.874 16.1354 174.124 16.2604C174.624 16.4686 174.999 16.8435 175.207 17.3017C175.374 17.5099 175.415 17.7598 175.415 18.0514ZM175.04 21.1337V32.3798H171.667V21.1337H175.04Z" fill="black"/>
<path id="Vector_11" d="M181.452 16.1406V32.3433H178.078V16.1406H181.452Z" fill="black"/>
<path id="Vector_12" d="M192.161 32.3433C191.995 32.3433 191.786 32.3017 191.62 32.2184C191.453 32.1351 191.37 31.9685 191.328 31.8019L191.078 30.9272C190.87 31.1771 190.62 31.3853 190.37 31.5936C190.12 31.8019 189.87 31.9685 189.579 32.0934C189.287 32.2184 188.996 32.3433 188.662 32.4266C188.329 32.5099 187.954 32.5516 187.579 32.5516C186.996 32.5516 186.455 32.4266 185.955 32.1767C185.455 31.9268 184.997 31.5103 184.664 31.0521C184.289 30.5106 183.997 29.8859 183.831 29.2611C183.623 28.4697 183.498 27.6366 183.539 26.8452C183.539 26.0539 183.664 25.2625 183.872 24.5127C184.081 23.8463 184.414 23.2215 184.872 22.6384C185.289 22.1385 185.788 21.722 186.413 21.3888C187.038 21.0972 187.704 20.9306 188.371 20.9306C188.871 20.9306 189.371 21.0139 189.829 21.1805C190.204 21.3472 190.578 21.5554 190.912 21.847V16.1406H194.285V32.3433H192.161ZM188.746 29.9692C188.954 29.9692 189.204 29.9275 189.412 29.8859C189.62 29.8442 189.787 29.7609 189.954 29.6776C190.12 29.5943 190.287 29.4693 190.412 29.3444C190.578 29.2194 190.703 29.0528 190.87 28.8862V24.1378C190.662 23.8879 190.37 23.6797 190.037 23.5547C189.745 23.4298 189.412 23.3881 189.121 23.3881C188.829 23.3881 188.537 23.4298 188.246 23.5547C187.954 23.6797 187.746 23.8879 187.579 24.1378C187.371 24.4711 187.205 24.8043 187.121 25.1792C186.996 25.679 186.955 26.2205 186.955 26.7619C186.955 27.2618 186.996 27.7616 187.08 28.2614C187.163 28.5946 187.246 28.9279 187.455 29.2611C187.579 29.4693 187.788 29.6776 187.996 29.8026C188.246 29.8859 188.496 29.9692 188.746 29.9692Z" fill="black"/>
<path id="Vector_13" d="M196.906 32.3357V21.0896H198.906C199.031 21.0896 199.197 21.0896 199.322 21.1313C199.405 21.1729 199.53 21.2146 199.614 21.2562C199.697 21.3396 199.739 21.4229 199.78 21.5062C199.822 21.6311 199.864 21.7561 199.864 21.881L200.03 22.9223C200.405 22.3392 200.863 21.8394 201.405 21.4229C201.905 21.048 202.488 20.8814 203.071 20.8814C203.529 20.8397 203.945 21.0063 204.32 21.2562L203.904 23.7137C203.904 23.8387 203.821 23.9636 203.737 24.0469C203.654 24.1302 203.529 24.1302 203.404 24.1302C203.279 24.1302 203.112 24.1303 202.987 24.0886C202.779 24.0469 202.571 24.0469 202.363 24.0469C201.488 24.0469 200.78 24.5051 200.28 25.4631V32.3357H196.906Z" fill="black"/>
<path id="Vector_14" d="M210.443 20.9297C211.151 20.9297 211.818 21.0546 212.484 21.2629C213.067 21.4712 213.609 21.8044 214.067 22.2626C214.525 22.7207 214.9 23.2622 215.108 23.887C215.358 24.5951 215.483 25.3032 215.483 26.0529C215.483 26.2612 215.483 26.4694 215.442 26.6777C215.442 26.8026 215.4 26.9276 215.317 27.0526C215.275 27.1359 215.192 27.2192 215.067 27.2608C214.942 27.3025 214.817 27.3025 214.692 27.3025H208.236C208.277 28.0522 208.569 28.802 209.111 29.3434C209.61 29.76 210.235 30.0099 210.902 29.9682C211.235 29.9682 211.568 29.9266 211.901 29.8433C212.151 29.76 212.401 29.635 212.651 29.51C212.859 29.3851 213.067 29.3018 213.276 29.1768C213.442 29.0935 213.651 29.0519 213.859 29.0519C214.109 29.0519 214.317 29.1352 214.484 29.3434L215.442 30.5513C215.108 30.9262 214.734 31.2594 214.317 31.5093C213.942 31.7593 213.526 31.9675 213.067 32.0925C212.651 32.2174 212.234 32.3424 211.818 32.384C211.401 32.4257 211.027 32.4674 210.61 32.4674C209.86 32.4674 209.111 32.3424 208.402 32.0925C207.736 31.8426 207.111 31.4677 206.611 30.9679C206.07 30.4264 205.653 29.8016 205.403 29.0935C205.07 28.2605 204.945 27.3858 204.945 26.4694C204.945 25.7613 205.07 25.0116 205.32 24.3452C205.82 23.0123 206.861 21.9293 208.153 21.3879C208.861 21.0963 209.652 20.9297 210.443 20.9297ZM210.527 23.2622C209.985 23.2206 209.444 23.4288 209.027 23.8037C208.611 24.2619 208.361 24.8033 208.319 25.3865H212.484C212.484 25.1366 212.443 24.845 212.401 24.5951C212.318 24.3452 212.234 24.1369 212.068 23.9286C211.901 23.7204 211.693 23.5538 211.443 23.4288C211.151 23.3039 210.818 23.2622 210.527 23.2622Z" fill="black"/>
<path id="Vector_15" d="M217.648 32.3457V21.0996H219.731C219.898 21.0996 220.106 21.1413 220.273 21.2246C220.439 21.3079 220.522 21.4745 220.564 21.6411L220.772 22.3075C220.981 22.0993 221.231 21.9326 221.439 21.7244C221.689 21.5578 221.939 21.3912 222.189 21.2662C222.48 21.1413 222.73 21.0579 223.063 20.9746C223.396 20.8913 223.73 20.8497 224.063 20.8913C224.604 20.8913 225.188 20.9746 225.687 21.2246C226.146 21.4328 226.562 21.7244 226.895 22.0993C227.228 22.5158 227.478 22.974 227.645 23.4321C227.812 23.9736 227.895 24.5567 227.895 25.1399V32.2624H224.521V25.2232C224.563 24.765 224.396 24.3068 224.146 23.932C223.855 23.5987 223.438 23.4321 223.022 23.4738C222.647 23.4738 222.313 23.5571 221.98 23.7237C221.647 23.8903 221.314 24.0986 221.064 24.3485V32.3457H217.648Z" fill="black"/>
<path id="Vector_16" d="M41.8784 11.8052C43.8778 9.47269 44.7525 8.38973 44.5442 7.76494C44.2943 7.22347 43.7944 6.80694 43.253 6.68199C42.5032 6.39042 41.4619 6.26547 40.9621 6.55703C40.5456 6.89025 40.1707 7.30677 39.8375 7.72329L39.2127 8.43138C38.7962 8.01486 38.3797 7.59834 37.9631 7.26512C34.9225 4.59938 31.1738 2.89164 27.1752 2.26685C25.5508 0.559113 23.4682 -0.232279 21.3856 0.0592867C19.5945 0.350852 18.0117 1.43381 17.0537 2.97494C12.9302 4.22451 9.26477 6.55703 6.34912 9.76425C5.68268 9.55599 4.2665 9.8059 3.35016 10.3057C2.93363 10.4723 2.60042 10.8472 2.47546 11.2637C2.43381 11.5553 2.55876 11.9718 3.64172 13.263C0.767719 17.8031 -0.440195 23.1763 0.142936 28.5077C0.767719 33.8392 3.3085 38.7542 7.34877 42.2946C8.76494 43.5442 10.3477 44.5855 12.0138 45.3769C19.8444 49.1672 29.0079 48.834 36.547 44.5022C37.1717 44.1273 37.38 43.3776 37.0884 42.7528L37.0051 42.5445C35.7556 39.7955 32.0069 31.3401 34.0895 23.6761C34.9642 20.4689 37.505 17.0534 39.6709 14.346C42.0034 17.9281 43.1697 22.1766 43.0031 26.4668C42.8781 30.3821 41.5452 34.1724 39.1711 37.2964C39.0461 37.4213 39.0461 37.5879 39.0877 37.7545L39.3377 38.296C39.4626 38.5043 39.7125 38.6292 39.9208 38.5043C40.0041 38.4626 40.0457 38.421 40.0874 38.3793C46.2936 30.632 47.0433 19.8441 41.8784 11.8052ZM14.5963 29.9656C13.7632 34.1724 13.5966 38.5043 14.0548 42.7944C12.472 42.0031 10.9725 40.9618 9.59799 39.7955C5.93259 36.6299 3.47511 32.2981 2.60042 27.5081C1.76737 23.0513 2.51711 18.4279 4.72468 14.471C5.55772 15.3456 6.55738 16.3453 7.59868 17.345C10.1395 19.8857 13.0551 22.7597 14.4713 24.8007C15.3043 25.967 15.0544 27.4664 14.5963 29.9656ZM36.8802 10.9305C32.1735 15.6789 27.7167 18.2613 23.6764 18.5529C20.5525 18.8028 17.262 17.8448 13.8882 15.8038C11.6389 14.3876 9.51468 12.7216 7.64033 10.8472L7.51538 10.7223C9.8479 8.22312 12.7636 6.43207 16.0541 5.43242C15.7209 6.76529 15.6376 8.09816 15.8458 9.47269C16.179 11.8469 17.4286 13.9711 19.303 15.429C21.9687 17.5116 25.8007 17.0117 27.8833 14.3876C27.9666 14.2627 28.0499 14.1794 28.1332 14.0544C29.5077 12.0968 30.0076 9.68095 29.6327 7.30677C29.5494 6.8486 29.4661 6.39042 29.3411 5.9739C31.7153 6.89025 33.9229 8.18147 35.7972 9.88921C36.1304 10.1808 36.5053 10.514 36.8802 10.9305Z" fill="#DA291C"/>
</g>
<defs>
<clipPath id="clip0_2315_20209">
<rect width="227.896" height="48" fill="white"/>
</clipPath>
</defs>
</svg>
